<svg width="24" height="25" viewBox="0 0 24 25" fill="none" xmlns="http://www.w3.org/2000/svg">
<path d="M23.4225 16.8432C23.4225 16.8432 20.974 15.6428 19.4409 14.8425C17.7059 13.9482 15.6671 15.6228 14.7077 16.5752C13.2145 16.001 11.8507 15.1344 10.6961 14.0262C9.58869 12.8707 8.72295 11.5055 8.14954 10.0107C9.10101 9.0484 10.77 7.00962 9.88055 5.27301C9.09099 3.73645 7.88176 1.28755 7.88176 1.28558C7.71208 0.948524 7.36738 0.735727 6.99026 0.735352H4.99148C2.08057 1.2386 -0.035894 3.7809 -0.00553695 6.73755C-0.00553695 9.87867 3.75021 15.9129 6.28277 18.4498C8.81534 20.9867 14.8437 24.7441 17.9838 24.7441C20.9376 24.7745 23.4775 22.6559 23.9803 19.7423V17.7416C23.9806 17.3601 23.7643 17.0117 23.4225 16.8432Z" fill="#FAFAFA"/>
</svg>
